<?xml version="1.0" encoding="UTF-8"?>
<svg version="1.1" viewBox="0 0 1040 1060" width="260" height="265" xmlns="http://www.w3.org/2000/svg">
<path transform="translate(0)" d="m0 0h1040v1060h-1040z"/>
<path transform="translate(238,302)" d="m0 0 466 1 1 2v504l1 17 7 23 7 14 9 10 8 7 17 9 14 2h16l12-2 12-5 13-9 10-11 8-16 4-17 1-34v-253l1-1h89l1 6-1 303-8 28-8 20-9 16-12 16-11 12-13 11-17 11-14 7-19 7-18 4-17 2h-22l-17-2-19-5-16-6-17-9-16-12-12-11-9-9-11-15-9-16-8-19-6-22-2-15-1-449-385-1z" fill="#FEFEFE"/>
<path transform="translate(101,77)" d="m0 0h81l11 1 1 795 6 9 356 1v96h-423l-11-9-24-24v-867z" fill="#FEFEFE"/>
<path transform="translate(0)" d="m0 0h1040v1060h-1040zm21 23v1019l127 1h370l498-1v-1018l-4-1z" fill="#FDFDFD"/>
<path transform="translate(364,511)" d="m0 0h17l20 3 18 6 19 10 12 9 12 11 10 13 8 14 6 14 4 13 2 14 1 19v31l-1 11-3 3h-2l-2 4-5 4-4 5-173 1v18l3 16 6 14 7 9 7 8 14 9 13 5 10 2h20l17-5 11-6 11-9 12-14 7-9 5 2 10 9 14 11 10 8-1 5-13 15-11 12-10 9-14 9-15 7-12 4-17 3h-32l-18-4-17-7-16-9-14-11-10-10-10-14-6-10-6-15-4-13-2-14v-101l2-15 6-18 8-16 7-11 9-11 8-8 13-10 18-10 16-6 15-3z" fill="#FEFEFE"/>
<path transform="translate(361,562)" d="m0 0h22l15 4 14 7 10 9 7 8 8 14 3 7 2 16v12l-2 5h-135l-3-7v-10l3-17 5-11 6-10 10-11 10-7 12-6z" fill="#010101"/>
<path transform="translate(744,302)" d="m0 0h44v197h-47v-191l2-5z" fill="#FEFEFE"/>
<path transform="translate(286,442)" d="m0 0h179l1 5v35l-2 6h-177l-1-1z" fill="#FEFEFE"/>
<path transform="translate(0)" d="m0 0h1040v12l-2-4-4-6h-1027l-5 2-2 1z" fill="#696969"/>
<path transform="translate(1034)" d="m0 0h6v12l-2-4-4-6z" fill="#1E1E1E"/>
</svg>
